solid OpenSCAD_Model
  facet normal -1 0 0
    outer loop
      vertex -14.75 11.25 -2
      vertex -14.75 10.25 0
      vertex -14.75 11.25 2
    endloop
  endfacet
  facet normal -1 0 0
    outer loop
      vertex -14.75 11.25 -2
      vertex -14.75 -10.25 0
      vertex -14.75 10.25 0
    endloop
  endfacet
  facet normal -1 0 0
    outer loop
      vertex -14.75 -11.25 -2
      vertex -14.75 -10.25 0
      vertex -14.75 11.25 -2
    endloop
  endfacet
  facet normal -1 0 0
    outer loop
      vertex -14.75 -11.25 2
      vertex -14.75 -10.25 0
      vertex -14.75 -11.25 -2
    endloop
  endfacet
  facet normal -1 0 0
    outer loop
      vertex -14.75 -10.25 0
      vertex -14.75 -11.25 2
      vertex -14.75 -10.25 2
    endloop
  endfacet
  facet normal -1 -0 0
    outer loop
      vertex -14.75 11.25 2
      vertex -14.75 10.25 0
      vertex -14.75 10.25 2
    endloop
  endfacet
  facet normal -0 0 1
    outer loop
      vertex -14.75 -10.25 2
      vertex 14.75 -11.25 2
      vertex 14.75 -10.25 2
    endloop
  endfacet
  facet normal 0 0 1
    outer loop
      vertex 14.75 -11.25 2
      vertex -14.75 -10.25 2
      vertex -14.75 -11.25 2
    endloop
  endfacet
  facet normal -0 0 1
    outer loop
      vertex -14.75 11.25 2
      vertex -2.25 10.25 2
      vertex -2.25 11.25 2
    endloop
  endfacet
  facet normal 0 0 1
    outer loop
      vertex -2.25 10.25 2
      vertex -14.75 11.25 2
      vertex -14.75 10.25 2
    endloop
  endfacet
  facet normal 1 0 0
    outer loop
      vertex 14.75 -10.25 2
      vertex 14.75 -11.25 2
      vertex 14.75 -10.25 0
    endloop
  endfacet
  facet normal 1 -0 0
    outer loop
      vertex 14.75 -10.25 0
      vertex 14.75 11.25 -2
      vertex 14.75 11.25 0
    endloop
  endfacet
  facet normal 1 0 0
    outer loop
      vertex 14.75 -10.25 0
      vertex 14.75 -11.25 -2
      vertex 14.75 11.25 -2
    endloop
  endfacet
  facet normal 1 0 0
    outer loop
      vertex 14.75 -11.25 -2
      vertex 14.75 -10.25 0
      vertex 14.75 -11.25 2
    endloop
  endfacet
  facet normal 0 1 0
    outer loop
      vertex 14.75 11.25 0
      vertex 14.75 11.25 -2
      vertex -2.25 11.25 0
    endloop
  endfacet
  facet normal 0 1 -0
    outer loop
      vertex -2.25 11.25 0
      vertex -14.75 11.25 2
      vertex -2.25 11.25 2
    endloop
  endfacet
  facet normal 0 1 0
    outer loop
      vertex -2.25 11.25 0
      vertex -14.75 11.25 -2
      vertex -14.75 11.25 2
    endloop
  endfacet
  facet normal 0 1 0
    outer loop
      vertex -14.75 11.25 -2
      vertex -2.25 11.25 0
      vertex 14.75 11.25 -2
    endloop
  endfacet
  facet normal 0 0 -1
    outer loop
      vertex -14.75 -11.25 -2
      vertex 14.75 11.25 -2
      vertex 14.75 -11.25 -2
    endloop
  endfacet
  facet normal -0 0 -1
    outer loop
      vertex 14.75 11.25 -2
      vertex -14.75 -11.25 -2
      vertex -14.75 11.25 -2
    endloop
  endfacet
  facet normal 0 -1 0
    outer loop
      vertex -14.75 -11.25 -2
      vertex 14.75 -11.25 2
      vertex -14.75 -11.25 2
    endloop
  endfacet
  facet normal 0 -1 -0
    outer loop
      vertex 14.75 -11.25 2
      vertex -14.75 -11.25 -2
      vertex 14.75 -11.25 -2
    endloop
  endfacet
  facet normal 0 0 1
    outer loop
      vertex -2.25 10.25 0
      vertex 14.75 11.25 0
      vertex -2.25 11.25 0
    endloop
  endfacet
  facet normal 0 0 1
    outer loop
      vertex 14.75 11.25 0
      vertex -2.25 10.25 0
      vertex 14.75 -10.25 0
    endloop
  endfacet
  facet normal 0 0 1
    outer loop
      vertex -14.75 -10.25 0
      vertex -2.25 10.25 0
      vertex -14.75 10.25 0
    endloop
  endfacet
  facet normal 0 0 1
    outer loop
      vertex -2.25 10.25 0
      vertex -14.75 -10.25 0
      vertex 14.75 -10.25 0
    endloop
  endfacet
  facet normal 0 1 -0
    outer loop
      vertex 14.75 -10.25 0
      vertex -14.75 -10.25 2
      vertex 14.75 -10.25 2
    endloop
  endfacet
  facet normal 0 1 0
    outer loop
      vertex -14.75 -10.25 2
      vertex 14.75 -10.25 0
      vertex -14.75 -10.25 0
    endloop
  endfacet
  facet normal 0 -1 0
    outer loop
      vertex -14.75 10.25 0
      vertex -2.25 10.25 2
      vertex -14.75 10.25 2
    endloop
  endfacet
  facet normal 0 -1 -0
    outer loop
      vertex -2.25 10.25 2
      vertex -14.75 10.25 0
      vertex -2.25 10.25 0
    endloop
  endfacet
  facet normal 1 -0 0
    outer loop
      vertex -2.25 10.25 2
      vertex -2.25 11.25 0
      vertex -2.25 11.25 2
    endloop
  endfacet
  facet normal 1 0 0
    outer loop
      vertex -2.25 11.25 0
      vertex -2.25 10.25 2
      vertex -2.25 10.25 0
    endloop
  endfacet
endsolid OpenSCAD_Model
