M48
;DRILL file {KiCad 5.0.2+dfsg1-1~bpo9+1} date seg 05 ago 2019 17:58:25 -03
;FORMAT={-:-/ absolute / metric / decimal}
FMAT,2
METRIC,TZ
T1C0.800
T2C0.900
T3C1.000
T4C1.100
%
G90
G05
T1
X13.97Y44.45
X21.59Y44.45
T2
X49.53Y21.59
X49.53Y19.05
T3
X7.62Y36.83
X15.24Y36.83
X17.78Y29.21
X22.86Y22.86
X22.86Y16.51
X29.21Y50.8
X29.21Y48.26
X29.21Y45.72
X29.21Y43.18
X57.5Y32.94
X57.5Y22.94
X63.5Y27.94
X53.34Y8.89
X55.88Y8.89
X58.42Y8.89
X60.96Y8.89
X63.5Y8.89
X66.04Y8.89
X17.78Y13.97
X20.32Y13.97
X22.86Y13.97
X25.4Y13.97
X15.24Y40.64
X17.78Y40.64
X20.32Y40.64
T4
X12.7Y34.29
X12.7Y19.05
X15.24Y34.29
X15.24Y31.75
X15.24Y19.05
X17.78Y34.29
X17.78Y19.05
X19.05Y26.67
X20.32Y34.29
X20.32Y31.75
X20.32Y19.05
X22.86Y34.29
X22.86Y31.75
X22.86Y26.67
X22.86Y19.05
X25.4Y34.29
X25.4Y31.75
X25.4Y19.05
X27.94Y34.29
X27.94Y29.21
X27.94Y26.67
X27.94Y19.05
X30.48Y34.29
X30.48Y29.21
X30.48Y26.67
X30.48Y19.05
X33.02Y34.29
X33.02Y29.21
X33.02Y26.67
X33.02Y19.05
X35.56Y34.29
X35.56Y29.21
X35.56Y26.67
X35.56Y19.05
X38.1Y34.29
X38.1Y29.21
X38.1Y26.67
X38.1Y19.05
X40.64Y34.29
X40.64Y29.21
X40.64Y26.67
X40.64Y19.05
X43.18Y34.29
X43.18Y29.21
X43.18Y26.67
X43.18Y19.05
X45.72Y34.29
X45.72Y31.75
X45.72Y29.21
X45.72Y26.67
X45.72Y24.13
X45.72Y21.59
X45.72Y19.05
X29.06Y13.39
X29.06Y8.89
X35.56Y13.39
X35.56Y8.89
X40.49Y13.39
X40.49Y8.89
X46.99Y13.39
X46.99Y8.89
T0
M30
